<?xml version="1.0" standalone="no"?>
<!DOCTYPE svg PUBLIC "-//W3C//DTD SVG 20010904//EN"
 "http://www.w3.org/TR/2001/REC-SVG-20010904/DTD/svg10.dtd">
<svg version="1.0" xmlns="http://www.w3.org/2000/svg"
 width="608.000000pt" height="608.000000pt" viewBox="0 0 608.000000 608.000000"
 preserveAspectRatio="xMidYMid meet">
<metadata>
Created by potrace 1.14, written by Peter Selinger 2001-2017
</metadata>
<g transform="translate(0.000000,608.000000) scale(0.100000,-0.100000)"
fill="#000000" stroke="none">
<path d="M3580 5726 c-84 -31 -846 -399 -857 -414 -10 -12 -13 -138 -13 -552
0 -499 1 -538 18 -552 9 -9 136 -72 282 -141 146 -69 336 -159 424 -201 87
-42 169 -76 182 -76 13 0 124 48 246 106 123 59 313 149 423 201 109 51 207
101 217 110 17 15 18 51 18 558 0 422 -3 545 -12 553 -16 12 -845 407 -873
415 -11 3 -36 0 -55 -7z"/>
<path d="M1549 5687 c-47 -23 -134 -65 -195 -94 -60 -29 -176 -84 -259 -124
-82 -39 -184 -87 -225 -106 -121 -56 -109 12 -108 -598 0 -390 3 -538 11 -549
7 -8 98 -55 202 -104 212 -100 362 -171 540 -257 66 -32 131 -58 145 -58 14 0
68 20 120 45 281 135 366 175 475 226 66 32 161 77 210 102 l90 45 2 539 c2
412 0 543 -10 554 -10 13 -132 74 -352 177 -38 18 -117 55 -175 83 -295 140
-344 162 -364 161 -11 0 -60 -19 -107 -42z"/>
<path d="M2490 3989 c-69 -34 -161 -78 -205 -99 -44 -20 -123 -58 -175 -83
-188 -90 -312 -147 -319 -147 -4 0 -17 -10 -29 -23 l-22 -23 0 -535 c0 -294 4
-539 8 -546 4 -7 62 -38 127 -69 66 -31 161 -76 210 -99 50 -23 133 -63 185
-88 52 -24 153 -72 225 -106 88 -42 137 -60 152 -56 12 3 89 37 170 76 81 39
184 88 228 109 44 21 132 62 195 93 63 30 150 71 192 91 43 20 82 45 88 55 6
12 9 217 9 549 -1 480 -3 532 -18 545 -9 8 -135 71 -281 140 -146 69 -331 157
-412 196 -81 39 -160 73 -175 76 -20 3 -63 -12 -153 -56z"/>
<path d="M4525 4025 c-45 -22 -153 -73 -385 -182 -41 -20 -133 -64 -205 -98
-71 -34 -154 -73 -182 -86 -29 -13 -54 -31 -54 -39 -1 -8 -2 -253 -3 -544 -1
-340 3 -534 9 -543 5 -7 125 -67 265 -134 140 -66 292 -138 337 -159 217 -104
260 -123 283 -123 14 0 68 21 120 45 52 25 133 64 180 86 47 22 139 65 205 97
66 32 179 85 251 120 89 42 132 68 135 81 8 34 3 1069 -4 1081 -5 7 -36 26
-70 42 -165 77 -261 123 -362 171 -60 29 -137 65 -170 80 -33 15 -105 49 -160
75 -55 26 -109 49 -120 51 -11 2 -42 -8 -70 -21z"/>
<path d="M1640 2362 c-18 -6 -157 -71 -335 -156 -71 -35 -182 -87 -245 -117
-63 -30 -155 -74 -205 -99 l-90 -45 -2 -540 c-1 -395 2 -544 10 -554 7 -8 53
-33 102 -56 50 -24 144 -68 210 -100 66 -31 154 -73 195 -92 41 -20 122 -58
180 -85 200 -96 198 -95 265 -64 16 8 80 38 140 66 61 29 137 65 170 80 33 15
116 55 185 87 69 33 166 79 215 102 50 24 98 50 107 58 16 15 18 56 18 548 0
405 -3 536 -13 548 -6 9 -169 91 -362 183 -550 261 -516 246 -545 236z"/>
<path d="M3600 2363 c-29 -10 -105 -45 -445 -208 -142 -69 -357 -170 -392
-186 -19 -8 -36 -24 -40 -39 -5 -14 -8 -257 -7 -540 1 -509 4 -560 34 -560 4
0 64 -26 132 -59 68 -32 161 -76 208 -99 47 -22 138 -65 202 -96 267 -126 318
-147 341 -140 29 9 180 79 467 217 69 32 152 72 185 87 181 83 215 101 223
117 6 14 10 989 3 1076 -1 16 -39 36 -316 167 -44 21 -118 56 -165 78 -47 22
-151 71 -231 110 -159 76 -177 83 -199 75z"/>
</g>
</svg>
